<mxfile host="app.diagrams.net" agent="Mozilla/5.0 (Windows NT 10.0; Win64; x64) AppleWebKit/537.36 (KHTML, like Gecko) Chrome/127.0.0.0 Safari/537.36" version="24.7.7">
  <diagram name="Page-1" id="ZYVEoyr4ppTjg7OTafu7">
    <mxGraphModel dx="1430" dy="757" grid="1" gridSize="10" guides="1" tooltips="1" connect="1" arrows="1" fold="1" page="1" pageScale="1" pageWidth="850" pageHeight="1100" math="0" shadow="0">
      <root>
        <mxCell id="0" />
        <mxCell id="1" parent="0" />
        <mxCell id="-q9D8d0sokJmGObQYAYw-1" value="CloudRun" style="rounded=1;whiteSpace=wrap;html=1;labelPosition=center;verticalLabelPosition=top;align=center;verticalAlign=bottom;fillColor=#d5e8d4;strokeColor=#82b366;" parent="1" vertex="1">
          <mxGeometry x="160" y="160" width="160" height="400" as="geometry" />
        </mxCell>
        <mxCell id="-q9D8d0sokJmGObQYAYw-2" value="service 1" style="rounded=0;whiteSpace=wrap;html=1;" parent="1" vertex="1">
          <mxGeometry x="180" y="225" width="120" height="60" as="geometry" />
        </mxCell>
        <mxCell id="-q9D8d0sokJmGObQYAYw-3" value="cov-agent 1" style="rounded=0;whiteSpace=wrap;html=1;" parent="1" vertex="1">
          <mxGeometry x="180" y="285" width="120" height="30" as="geometry" />
        </mxCell>
        <mxCell id="-q9D8d0sokJmGObQYAYw-19" style="edgeStyle=orthogonalEdgeStyle;rounded=0;orthogonalLoop=1;jettySize=auto;html=1;exitX=0;exitY=0.5;exitDx=0;exitDy=0;entryX=1;entryY=0.5;entryDx=0;entryDy=0;" parent="1" source="-q9D8d0sokJmGObQYAYw-5" target="-q9D8d0sokJmGObQYAYw-3" edge="1">
          <mxGeometry relative="1" as="geometry" />
        </mxCell>
        <mxCell id="-q9D8d0sokJmGObQYAYw-20" style="edgeStyle=orthogonalEdgeStyle;rounded=0;orthogonalLoop=1;jettySize=auto;html=1;exitX=0;exitY=0.5;exitDx=0;exitDy=0;entryX=1;entryY=0.5;entryDx=0;entryDy=0;" parent="1" source="-q9D8d0sokJmGObQYAYw-5" target="-q9D8d0sokJmGObQYAYw-12" edge="1">
          <mxGeometry relative="1" as="geometry" />
        </mxCell>
        <mxCell id="-q9D8d0sokJmGObQYAYw-5" value="Apigee" style="rounded=1;whiteSpace=wrap;html=1;labelPosition=center;verticalLabelPosition=middle;align=center;verticalAlign=middle;fillColor=#fff2cc;strokeColor=#d6b656;" parent="1" vertex="1">
          <mxGeometry x="440" y="160" width="80" height="400" as="geometry" />
        </mxCell>
        <mxCell id="-q9D8d0sokJmGObQYAYw-18" style="edgeStyle=orthogonalEdgeStyle;rounded=0;orthogonalLoop=1;jettySize=auto;html=1;entryX=1;entryY=0.5;entryDx=0;entryDy=0;" parent="1" source="-q9D8d0sokJmGObQYAYw-6" target="-q9D8d0sokJmGObQYAYw-5" edge="1">
          <mxGeometry relative="1" as="geometry" />
        </mxCell>
        <mxCell id="-q9D8d0sokJmGObQYAYw-6" value="CTP" style="rounded=0;whiteSpace=wrap;html=1;fillColor=#dae8fc;strokeColor=#6c8ebf;" parent="1" vertex="1">
          <mxGeometry x="660" y="330" width="120" height="60" as="geometry" />
        </mxCell>
        <mxCell id="-q9D8d0sokJmGObQYAYw-9" style="edgeStyle=orthogonalEdgeStyle;rounded=0;orthogonalLoop=1;jettySize=auto;html=1;entryX=0.5;entryY=0;entryDx=0;entryDy=0;" parent="1" source="-q9D8d0sokJmGObQYAYw-8" target="-q9D8d0sokJmGObQYAYw-6" edge="1">
          <mxGeometry relative="1" as="geometry" />
        </mxCell>
        <mxCell id="-q9D8d0sokJmGObQYAYw-8" value="test framework&lt;div&gt;(selenium + TestNG + Cucumber)&lt;/div&gt;" style="rounded=0;whiteSpace=wrap;html=1;" parent="1" vertex="1">
          <mxGeometry x="660" y="180" width="120" height="60" as="geometry" />
        </mxCell>
        <mxCell id="-q9D8d0sokJmGObQYAYw-11" value="service 2" style="rounded=0;whiteSpace=wrap;html=1;" parent="1" vertex="1">
          <mxGeometry x="180" y="405" width="120" height="60" as="geometry" />
        </mxCell>
        <mxCell id="-q9D8d0sokJmGObQYAYw-12" value="cov-agent 2" style="rounded=0;whiteSpace=wrap;html=1;" parent="1" vertex="1">
          <mxGeometry x="180" y="465" width="120" height="30" as="geometry" />
        </mxCell>
        <mxCell id="-q9D8d0sokJmGObQYAYw-14" value="Authorization: {ctp_token} - azure ad&lt;div&gt;X-Forwarded-Authorization: {token} - custom script&lt;/div&gt;" style="text;html=1;align=center;verticalAlign=middle;whiteSpace=wrap;rounded=0;" parent="1" vertex="1">
          <mxGeometry x="730" y="250" width="350" height="90" as="geometry" />
        </mxCell>
        <mxCell id="-q9D8d0sokJmGObQYAYw-15" value="Authorization: {token}" style="text;html=1;align=center;verticalAlign=middle;whiteSpace=wrap;rounded=0;rotation=0;" parent="1" vertex="1">
          <mxGeometry x="530" y="340" width="120" height="90" as="geometry" />
        </mxCell>
        <mxCell id="-q9D8d0sokJmGObQYAYw-17" style="edgeStyle=orthogonalEdgeStyle;rounded=0;orthogonalLoop=1;jettySize=auto;html=1;" parent="1" source="-q9D8d0sokJmGObQYAYw-16" target="-q9D8d0sokJmGObQYAYw-8" edge="1">
          <mxGeometry relative="1" as="geometry" />
        </mxCell>
        <mxCell id="-q9D8d0sokJmGObQYAYw-16" value="{token}" style="text;html=1;align=center;verticalAlign=middle;whiteSpace=wrap;rounded=0;" parent="1" vertex="1">
          <mxGeometry x="690" y="120" width="60" height="30" as="geometry" />
        </mxCell>
        <mxCell id="-q9D8d0sokJmGObQYAYw-22" value="gcp token" style="text;html=1;align=center;verticalAlign=middle;whiteSpace=wrap;rounded=0;" parent="1" vertex="1">
          <mxGeometry x="380" y="370" width="60" height="30" as="geometry" />
        </mxCell>
      </root>
    </mxGraphModel>
  </diagram>
</mxfile>
